<?xml version="1.0" encoding="UTF-8" standalone="no"?>
<!-- Created with Inkscape (http://www.inkscape.org/) -->

<svg
   xmlns:dc="http://purl.org/dc/elements/1.1/"
   xmlns:cc="http://creativecommons.org/ns#"
   xmlns:rdf="http://www.w3.org/1999/02/22-rdf-syntax-ns#"
   xmlns:svg="http://www.w3.org/2000/svg"
   xmlns="http://www.w3.org/2000/svg"
   version="1.1"
   width="744.09448"
   height="1052.3622"
   id="svg2">
  <defs
     id="defs4" />
  <metadata
     id="metadata7">
    <rdf:RDF>
      <cc:Work
         rdf:about="">
        <dc:format>image/svg+xml</dc:format>
        <dc:type
           rdf:resource="http://purl.org/dc/dcmitype/StillImage" />
        <dc:title></dc:title>
      </cc:Work>
    </rdf:RDF>
  </metadata>
  <g
     id="layer1">
    <path
       d="m 494.23609,716.51856 c -15.0947,-2.41927 -36.8467,-10.65568 -64,-24.23366 -15.8552,-7.92832 -84.00969,-43.51029 -102.00005,-53.25196 -2.75,-1.48911 -10.4,-5.53922 -17,-9.00025 -18.69193,-9.80201 -45.2865,-23.84928 -53,-27.99463 -13.59676,-7.3071 -62.265,-32.85892 -82.79216,-43.46758 -22.95977,-11.86586 -22.82526,-11.75049 -36.18222,-31.03317 -13.037,-18.82078 -21.16193,-30.3452 -23.79436,-33.75 -3.10244,-4.01271 -2.972,-4.56971 0.55392,-2.36528 4.56087,2.85148 50.75156,19.26858 114.71482,40.77196 90.06489,30.2783 185.35745,61.53522 238.50005,78.23042 36.1948,11.37092 50.6673,15.61758 71.7553,21.05515 25.2817,6.51892 30.8876,9.066 34.2457,15.55978 3.857,7.4587 0.3161,21.53832 -8.9003,35.38974 -18.4673,27.75468 -42.0518,38.90551 -72.1007,34.08948 z M 393.56105,585.02336 c -2.2029,-1.31711 -3.51162,-5.82606 -4.3158,-14.86925 -1.09667,-12.33226 -3.7861,-19.29427 -9.70353,-25.1191 -6.90557,-6.79749 -18.43992,-12.50129 -25.25228,-12.48738 -2.77937,0.006 -6.56819,0.31215 -8.41959,0.68107 -3.83267,0.76371 -7.91711,-0.46309 -8.74765,-2.62745 -0.30942,-0.80634 0.5525,-2.9506 1.91538,-4.76501 3.90933,-5.20452 8.61281,-15.28804 9.81215,-21.03571 0.61406,-2.94278 3.11859,-8.5698 5.68079,-12.76322 6.30771,-10.32351 11.20552,-19.90855 11.20552,-21.92927 0,-0.92866 -0.66069,-2.56198 -1.4682,-3.6296 -1.41804,-1.87483 -1.47003,-1.85574 -1.52196,0.55887 -0.077,3.58109 -3.05558,9.68202 -9.89227,20.26216 -4.59042,7.10391 -6.57948,11.43233 -8.61071,18.73784 -2.92399,10.51641 -5.84156,15.7491 -9.27736,16.63902 -7.2232,1.87091 -27.77634,-9.16564 -25.94697,-13.93291 0.29828,-0.7773 5.98174,-5.09993 12.6299,-9.60584 6.64816,-4.5059 12.08757,-8.62179 12.08757,-9.14641 0,-2.24601 -5.0863,-0.63292 -11.0616,3.50811 -19.64057,13.61139 -27.18427,18.53803 -28.38556,18.53803 -1.05388,0 -1.14188,-0.88288 -0.41185,-4.13198 0.51061,-2.27258 0.71917,-4.3412 0.46345,-4.59691 -0.25572,-0.25572 -2.40883,2.12829 -4.78469,5.29779 -8.20604,10.94723 -12.72595,15.15943 -20.74172,19.3297 -4.28722,2.23045 -8.36373,4.74072 -9.05893,5.57838 -2.47158,2.97807 -8.37419,1.56258 -31.62882,-7.58485 -14.93092,-5.87322 -15.13209,-5.99343 -17,-10.15874 -2.45359,-5.47132 -6.2604,-9.74669 -14.61134,-16.40977 -6.56657,-5.23936 -8.4835,-8.32362 -5.1733,-8.32362 0.88311,0 2.94263,-1.125 4.57673,-2.5 1.63409,-1.375 4.14448,-2.5 5.57863,-2.5 4.36152,0 10.35758,-3.57238 22.82847,-13.60091 9.41618,-7.57207 15.16387,-11.22468 27.44523,-17.44122 15.87702,-8.03659 25.33095,-14.00265 23.27487,-14.68801 -0.6332,-0.21107 -3.42194,0.76686 -6.19718,2.17319 -2.77525,1.40632 -5.3639,2.55695 -5.75256,2.55695 -0.38866,0 2.63388,-3.51399 6.71676,-7.80888 4.08287,-4.29488 10.76818,-11.55222 14.85624,-16.12741 8.35956,-9.35571 11.43467,-11.06371 19.91926,-11.06371 4.91465,0 7.2845,0.6848 13.99743,4.04472 6.68063,3.34376 9.41618,5.51134 15.78484,12.50749 8.60048,9.44787 13.62979,13.51085 33.59662,27.1414 l 3.73097,2.54698 3.41889,-3.00182 c 2.80667,-2.46429 4.91414,-3.22368 11.76902,-4.24079 4.59258,-0.68144 12.03229,-1.07029 16.53259,-0.86413 12.6889,0.58129 13.1426,1.09472 24.202,27.38776 8.2362,19.58081 12.1156,30.97258 12.1156,35.57696 0,2.48181 -1.1338,6.05959 -3.0644,9.67033 -2.7188,5.08481 -2.994,6.35133 -2.4403,11.2311 l 0.6241,5.5 -9.3097,12.95878 c -5.1204,7.12733 -11.7847,16.98664 -14.8097,21.90958 -3.025,4.92293 -6.625,9.75867 -8,10.74609 -3.2655,2.345 -7.08139,3.1234 -9.17504,1.8716 z m -12.24147,-6.40413 c -5.91552,-2.2177 -5.91671,-2.21898 -7.57076,-8.14999 -1.719,-6.16385 -6.27089,-15.85538 -7.92792,-16.87948 -0.52424,-0.324 -0.69727,-2.16603 -0.3845,-4.0934 0.42204,-2.60074 0.0834,-4.04055 -1.31349,-5.58405 -2.57555,-2.84596 -6.72917,-4.86793 -10.08721,-4.91044 -1.53981,-0.0195 -3.92466,-0.67854 -5.29966,-1.46456 l -2.5,-1.42913 3,-0.17521 c 15.06716,-0.87999 26.85146,6.10872 33.05666,19.60434 3.21195,6.98564 5.98171,19.07872 5.30219,23.14998 l -0.35885,2.14999 -5.91646,-2.21805 z m -16.08354,-5.59733 c -1.1,-0.48402 -16.22833,-5.92634 -33.61851,-12.09404 l -31.61852,-11.214 4.39427,-5.77808 c 5.20011,-6.8377 14.42796,-11.91297 21.59543,-11.87738 6.16504,0.0306 17.03343,4.19962 23.3181,8.94459 7.62986,5.7606 19.26321,22.12591 21.88317,30.78432 0.57238,1.89159 0.31169,2.23922 -1.63655,2.18232 -1.27457,-0.0372 -3.21739,-0.4637 -4.31739,-0.94773 z m -158,-53.95078 c -3.41967,-1.43526 -11.14064,-10.487 -11.81307,-13.84916 -0.35031,-1.75156 -0.29768,-3.18465 0.11696,-3.18465 1.13011,0 12.80214,12.17024 14.08314,14.68426 1.81577,3.56354 1.42407,3.9491 -2.38703,2.34955 z m -27.25,-8.69609 c -13.88575,-4.68333 -22.25,-7.99775 -22.25,-8.81681 0,-1.69208 8.81552,-7.35507 13.43523,-8.63064 4.41602,-1.21932 9.35507,0.83935 13.14536,5.47919 1.40654,1.7218 6.22149,6.84304 10.69989,11.38054 4.4784,4.5375 7.93486,8.21447 7.68103,8.17105 -0.25383,-0.0434 -10.47401,-3.45592 -22.71151,-7.58333 z m -63.2656,-21.20642 c -1.91642,-1.02779 -3.3719,-2.26529 -3.2344,-2.75 0.4112,-1.44957 1.6119,-1.02659 5.27317,1.85761 4.01643,3.16399 3.01455,3.60252 -2.03877,0.89239 z m 310.64615,-20.8813 c -0.7815,-1.5125 -1.9595,-4.775 -2.6179,-7.25 -2.7077,-10.17948 -11.2748,-16 -23.55,-16 -12.47928,0 -23.46974,1.92564 -26.37716,4.62155 -1.41078,1.30815 -2.92651,2.37845 -3.36829,2.37845 -1.87114,0 -26.41657,-19.25976 -28.53048,-22.38665 -1.76493,-2.61069 -2.16487,-4.21491 -1.68719,-6.76758 0.34435,-1.84017 0.17165,-5.37077 -0.38379,-7.84577 l -1.00988,-4.5 1.90013,2.5 c 1.04506,1.375 2.66459,4.1875 3.59894,6.25 0.93435,2.0625 2.08048,3.75 2.54694,3.75 1.29486,0 1.23009,-0.18303 -4.73522,-13.38053 -5.62735,-12.44981 -12.55185,-22.83997 -21.19633,-31.80491 -3.14389,-3.26043 -8.63023,-6.84942 -18.03923,-11.80069 -7.43671,-3.91338 -15.35724,-8.53515 -17.60119,-10.27059 -8.04352,-6.22074 -23.20642,-19.23855 -30.0799,-25.82451 -3.85,-3.68895 -9.10881,-8.44229 -11.68625,-10.56298 -4.95606,-4.07779 -6.0201,-6.35579 -2.96874,-6.35579 3.33943,0 5.15499,-3.2424 5.15499,-9.2063 0,-6.30589 1.5326,-8.37881 5.4651,-7.39181 2.48565,0.62385 13.54524,10.96671 18.81762,17.59811 1.63472,2.05609 2.32992,2.5489 1.68514,1.19456 -0.60366,-1.26799 -0.95558,-2.73141 -0.78204,-3.25203 0.17355,-0.52063 5.52815,2.76682 11.89913,7.30544 6.37098,4.53862 13.60988,9.65359 16.08644,11.36661 2.47657,1.71303 7.77248,7.02919 11.7687,11.8137 7.37322,8.82764 9.54254,10.33948 6.55991,4.57172 -0.90611,-1.75222 -1.45989,-3.37344 -1.23062,-3.60271 0.94734,-0.94734 11.60244,4.22321 16.52626,8.01962 8.19788,6.32081 10.46544,7.57215 13.73185,7.57783 1.66513,0.003 3.91513,0.60988 5,1.34887 4.16376,2.83621 8.4974,3.70723 11.25534,2.26219 2.19789,-1.15159 3.23852,-1.1364 6.86791,0.10026 3.97689,1.35507 12.34926,8.41376 12.34926,10.41159 0,0.48529 0.80485,0.88235 1.78856,0.88235 0.98371,0 3.50483,0.87501 5.6025,1.94446 3.03723,1.54847 4.19111,1.70891 5.66596,0.78785 2.80303,-1.75053 3.49733,-0.11806 1.6222,3.81417 -3.06929,6.43638 -1.23803,16.25508 3.81363,20.44758 2.2321,1.85251 4.104,5.75534 4.9188,10.25594 0.4721,2.60732 1.1984,3.74714 2.3837,3.74062 3.087,-0.017 12.1017,-5.92888 19.0831,-12.51475 7.0992,-6.69701 8.7734,-7.54664 9.7673,-4.9566 0.4538,1.18254 1.6104,1.38869 5.2186,0.93009 4.1143,-0.52292 5.3105,-0.1777 10.6357,3.06937 7.8315,4.77533 21.6427,11.67185 22.2195,11.0951 0.2484,-0.24848 -0.4868,-0.95408 -1.6339,-1.56799 -1.1471,-0.61392 -2.0856,-1.4883 -2.0856,-1.94308 0,-1.39322 12.0215,-3.39886 21,-3.5036 7.5222,-0.0877 8.8709,0.17912 11.7243,2.31995 1.7734,1.33051 4.6984,2.53094 6.5,2.66762 1.8016,0.13667 4.9726,0.84807 7.0467,1.58088 l 3.771,1.33239 -0.6424,6 c -0.3533,3.3 -0.953,6.34283 -1.3328,6.76185 -0.3798,0.41902 -3.8127,0.94808 -7.6287,1.17569 -15.7546,0.9397 -24.0369,2.50722 -31.5323,5.96785 -4.0732,1.88061 -12.8058,5.26554 -19.4058,7.52206 -6.6,2.25651 -14.025,5.16686 -16.5,6.46743 -2.475,1.30057 -6.3,2.92314 -8.5,3.6057 -5.9266,1.83875 -6.3196,2.84612 -0.8708,2.23196 l 4.8031,-0.54138 -1.5504,2.40442 c -0.8527,1.32243 -3.2387,5.44192 -5.3022,9.15442 -2.0635,3.7125 -3.9266,6.75 -4.1401,6.75 -0.2136,0 -1.0277,-1.2375 -1.8091,-2.75 z m 91.6195,-37.47049 c -2.9341,-1.41503 -2.8727,-2.77951 0.125,-2.77951 2.7068,0 3.625,-2.81771 3.625,-11.125 0,-3.59734 -0.381,-4.875 -1.4535,-4.875 -1.2157,0 -1.1748,-0.48987 0.25,-2.99368 0.9369,-1.64652 2.2178,-2.99652 2.8465,-3 1.596,-0.009 2.3492,2.39504 1.2797,4.08436 -0.4906,0.77513 -0.899,2.04156 -0.9074,2.81431 -0.012,1.11291 0.3653,1.06049 1.8158,-0.25218 1.0071,-0.91145 2.1321,-1.35619 2.5,-0.98833 1.143,1.14296 0.734,5.14209 -0.5811,5.68263 -0.7864,0.32319 0.4192,2.04298 3.25,4.63621 l 4.5,4.12244 -3.3536,-0.65508 c -2.9938,-0.5848 -3.6722,-0.26858 -6.3228,2.94712 -3.1559,3.82863 -4.014,4.09847 -7.5736,2.38171 z m -4.5972,-21.61066 c -1.5261,-1.68624 -1.3395,-3.16885 0.3988,-3.16885 0.3951,0 1.4555,1.125 2.3564,2.5 1.2996,1.9835 1.3554,2.5 0.27,2.5 -0.7524,0 -2.1138,-0.82402 -3.0252,-1.83115 z m -104.6528,-2.80499 c -4.135,-2.61815 -10.2957,-14.0688 -10.8022,-20.07777 -0.2417,-2.86765 -0.1468,-5.97661 0.2109,-6.90879 0.5743,-1.4966 0.9686,-1.39474 3.3708,0.87075 5.2161,4.91919 10.1104,5.22821 19.5831,1.23643 1.6872,-0.711 1.8281,-0.35105 1.4962,3.82257 -0.3463,4.35375 -0.2423,4.57632 1.8873,4.0418 1.2396,-0.31111 2.2539,-0.13911 2.2539,0.38223 0,0.52134 1.125,1.46047 2.5,2.08697 3.4354,1.5653 3.1569,2.59905 -1.5807,5.8671 -2.2443,1.54817 -6.2811,4.50235 -8.9705,6.56485 -5.458,4.1856 -6.3706,4.3795 -9.9488,2.11386 z m 14,-10.24142 c 0,-0.48265 -0.6541,-1.4204 -1.4536,-2.08388 -1.5724,-1.30502 -10.6441,-4.27425 -11.2395,-3.6788 -0.3479,0.34781 10.3906,6.18495 11.9431,6.49193 0.4125,0.0816 0.75,-0.24659 0.75,-0.72925 z m 5.5712,-7.49052 c -2.5895,-2.44217 -3.5712,-4.21283 -3.5712,-6.44098 0,-1.6901 -0.4159,-3.32994 -0.9242,-3.64409 -0.5084,-0.31415 -3.0959,0.5926 -5.75,2.01501 -7.5339,4.03748 -14.9806,1.90201 -17.9228,-5.13964 -0.7864,-1.88222 -1.8738,-3.42222 -2.4165,-3.42222 -1.63304,0 -1.1166,-4.45176 1.097,-9.45599 1.146,-2.59063 1.8509,-4.94289 1.5665,-5.22725 -0.8247,-0.82471 -2.7079,0.70248 -3.7433,3.03557 -0.74922,1.68828 -0.86226,1.29207 -0.52845,-1.85233 0.23355,-2.2 0.77045,-4.86132 1.19315,-5.91404 0.54,-1.34516 0.4207,-1.69914 -0.40151,-1.19099 -2.59078,1.60119 -1.01282,-3.34939 1.83011,-5.74152 3.233,-2.72043 3.9158,-4.21887 1.5,-3.29182 -0.825,0.31658 -1.5,0.13244 -1.5,-0.40919 0,-0.90888 3.6574,-2.83949 8.5,-4.48677 1.9655,-0.6686 1.9664,-0.69284 0.053,-1.405 -1.8226,-0.67854 -1.7989,-0.76326 0.3724,-1.33105 1.2753,-0.33352 4.5137,-0.34644 7.1964,-0.0287 3.1476,0.37279 4.8776,0.1996 4.8776,-0.48828 0,-0.58628 -0.7875,-1.27176 -1.75,-1.52329 -1.3442,-0.35128 -1.2392,-0.48422 0.453,-0.57333 1.2116,-0.0638 3.4258,0.44121 4.9205,1.12224 2.1604,0.98432 2.8023,0.98432 3.1304,0 0.6435,-1.93045 2.8179,-1.46941 6.1018,1.29377 2.8068,2.36183 3.0784,2.41224 4.04,0.75 0.9156,-1.58284 1.167,-1.4298 2.2495,1.36928 1.0058,2.60075 1.9295,3.27187 5.2868,3.84147 3.9106,0.66347 3.9713,0.72964 1.568,1.71002 -2.4636,1.00499 -2.4418,1.03854 1.5,2.30368 3.8448,1.23401 3.8836,1.28805 1,1.39243 l -3,0.10859 3.5,2.0833 c 5.4271,3.23035 8.0056,7.24645 3.976,6.19269 -1.9812,-0.51808 -1.9869,-0.46448 -0.2688,2.52906 0.9767,1.70186 1.3702,3.41964 0.8871,3.87291 -0.4774,0.44801 -1.069,0.25206 -1.3145,-0.43544 -0.2456,-0.6875 -0.9152,-1.25 -1.4881,-1.25 -0.9998,0 -0.766,2.18034 0.8576,8 0.6136,2.19927 0.5059,2.34297 -0.8952,1.19455 -1.3377,-1.09648 -1.7608,-1.01645 -2.643,0.5 -0.8934,1.53584 -1.0548,1.32893 -1.0807,-1.38553 -0.034,-3.51927 -1.7011,-5.33063 -2.6444,-2.8724 -0.33,0.85986 -1.0177,1.56338 -1.5282,1.56338 -0.5178,0 -0.446,-0.90099 0.1624,-2.03777 1.3201,-2.46644 0.3892,-5.96223 -1.5875,-5.96223 -0.788,0 -1.4326,0.92656 -1.4326,2.05902 0,1.13246 -0.45,1.7809 -1,1.44098 -0.55,-0.33992 -1,-1.71648 -1,-3.05902 0,-3.07465 -2.332,-3.19249 -3.7796,-0.19098 -0.9922,2.0574 -1.0909,1.929 -1.1528,-1.5 -0.08,-4.44134 -2.6534,-5.24877 -3.6808,-1.15498 -0.8921,3.55407 -2.3513,1.14307 -2.3715,-3.91834 -0.012,-3.09671 -0.3479,-3.76026 -1.7653,-3.49145 -2.1814,0.41367 -2.8205,4.87667 -1.148,8.01532 1.1555,2.16829 1.1162,2.21645 -0.6883,0.8443 -1.0526,-0.80033 -3.5627,-3.27533 -5.578,-5.5 -2.9887,-3.29912 -3.9059,-3.80979 -4.9749,-2.76989 -1.072,1.04271 -1.0761,1.65066 -0.023,3.3374 1.1886,1.90326 1.1094,2.00651 -1.0251,1.33781 -1.2722,-0.39854 -2.8219,-0.91544 -3.4439,-1.14865 -0.6219,-0.23322 -1.5832,0.87381 -2.1362,2.46006 l -1.0054,2.88409 5.3179,-0.44099 c 8.7766,-0.72783 27.693,6.0939 33.1547,11.95648 1.2119,1.30085 2.3937,4.11776 2.631,6.27134 0.4963,4.50397 -1.9227,12.5675 -3.7702,12.5675 -0.688,0 -2.0655,0.9 -3.0609,2 -2.7444,3.03248 -6.8014,2.52462 -10.9288,-1.36808 z m 12.4397,-3.88192 c 1.0899,-1.7875 1.9372,-4.375 1.883,-5.75 -0.083,-2.10979 -0.2204,-1.98634 -0.8784,0.79096 -1.2187,5.14382 -3.881,7.49256 -7.7763,6.86043 -1.9288,-0.313 -3.0441,-0.14469 -2.7026,0.40784 0.3197,0.51743 2.1364,0.94077 4.0371,0.94077 2.8255,0 3.817,-0.5926 5.4372,-3.25 z M 223.14258,311.65434 c -0.83548,-2.17721 0.58435,-4.23949 1.70315,-2.47379 0.6629,1.04619 0.86319,0.94113 0.875,-0.45898 0.024,-2.84498 -1.79672,-5.53569 -4.79492,-7.08612 -1.53528,-0.79393 -2.82043,-2.34517 -2.9082,-3.51035 -0.16386,-2.17518 1.14864,-2.81875 2.21843,-1.08779 1.0275,1.66254 6.5,1.21515 6.5,-0.53138 0,-0.84227 -0.63062,-1.77338 -1.40137,-2.06914 -1.60301,-0.61514 -1.4751,-3.60732 0.17777,-4.15828 0.6059,-0.20197 2.2495,0.38489 3.65243,1.30413 2.76478,1.81155 3.73798,0.9425 3.28976,-2.9377 -0.35389,-3.06363 1.64435,-2.83471 3.4849,0.39924 2.07659,3.6487 4.09597,3.82606 5.61456,0.49313 1.7942,-3.93784 2.8745,-2.94756 2.99997,2.75 0.0636,2.8875 0.17427,6.95763 0.24598,9.04473 0.18047,5.25314 -0.77634,8.48621 -2.82581,9.54845 -0.956,0.49551 -5.45287,1.21461 -9.99304,1.59802 -6.90483,0.58309 -8.35032,0.4483 -8.83861,-0.82417 z"
       id="path2996"
       style="fill:#b88e2f" />
  </g>
</svg>
