<?xml version="1.0" encoding="UTF-8" standalone="no"?>
<svg width="840px" height="600px" viewBox="0 0 840 600" version="1.1" xmlns="http://www.w3.org/2000/svg" xmlns:xlink="http://www.w3.org/1999/xlink">
    <!-- Generator: Sketch 39.1 (31720) - http://www.bohemiancoding.com/sketch -->
    <title>Visa-Alt</title>
    <desc>Created with Sketch.</desc>
    <defs></defs>
    <g id="Page-1" stroke="none" stroke-width="1" fill="none" fill-rule="evenodd">
        <g id="GoPro-Credit_Card-Logos" transform="translate(-1140.000000, -900.000000)">
            <g id="Visa-Alt" transform="translate(1140.000000, 900.000000)">
                <rect id="CC-BG" fill="#3a3a3a00" x="0" y="0" width="840" height="600" rx="60"></rect>
                <g id="Visa-Logo" transform="translate(122.000000, 208.000000)">
                    <path d="M210.545527,181.357025 L240.372688,3.10628496 L288.050333,3.10628496 L258.225899,181.357025 L210.545527,181.357025 Z M431.167805,7.48140836 C421.740807,3.90391576 406.914488,0 388.444991,0 C341.307278,0 308.125993,24.1921685 307.850573,58.8298782 C307.55061,84.4488319 331.528507,98.7403751 349.605326,107.256334 C368.183901,115.985522 374.425844,121.57157 374.352216,129.376769 C374.224051,141.314906 359.523171,146.785127 345.814893,146.785127 C326.726383,146.785127 316.58493,144.092136 300.905082,137.437315 L294.772216,134.599539 L288.104872,174.499506 C299.222566,179.464297 319.832703,183.77361 341.222743,184 C391.319175,184 423.87054,160.102665 424.25231,123.114182 C424.424106,102.796973 411.719339,87.3945377 384.204615,74.6798289 C367.543072,66.4165844 357.317084,60.941099 357.434342,52.5751892 C357.44525,45.1648569 366.073257,37.2359329 384.747274,37.2359329 C400.342587,36.9937479 411.632078,40.4606779 420.429154,44.082922 L424.710434,46.1230668 L431.167805,7.48140836 Z M553.473345,3.28792366 L516.627066,3.28792366 C505.198502,3.28792366 496.644123,6.44159263 491.637479,18.0638368 L420.83274,181.420204 L470.910083,181.420204 C470.910083,181.420204 479.079966,159.444554 480.934278,154.621915 C486.396319,154.621915 535.05566,154.714051 542.001151,154.714051 C543.430062,160.934518 547.806785,181.420204 547.806785,181.420204 L592.059406,181.420204 L553.473345,3.28792366 Z M494.653464,118.159921 C498.604785,107.914446 513.646532,68.3382692 513.646532,68.3382692 C513.368385,68.8068444 517.576038,58.0111879 519.983917,51.3300428 L523.201695,66.7035209 C523.201695,66.7035209 532.350545,109.249095 534.234854,118.159921 L494.653464,118.159921 Z M170.546916,3.25633432 L123.880962,124.78052 L118.882499,100.077657 C110.186319,71.615663 83.1160844,40.7660415 52.8362529,25.3083251 L95.5290701,181.201711 L145.988184,181.172754 L221.071477,3.25633432 L170.546916,3.25633432 Z" id="Combined-Shape" fill="#3a3a3a"></path>
                    <path d="M79.7929571,101.2 L0.936503866,101.2 L0.284843869,97.344474 C61.6471629,81.9306142 102.24586,44.7246511 119.096725,0 L101.960584,85.5003421 C99.0043413,97.2922609 90.4124979,100.787791 79.7929571,101.2" id="path30" fill="#3a3a3a" transform="translate(59.690784, 50.600000) scale(1, -1) translate(-59.690784, -50.600000) "></path>
                </g>
            </g>
        </g>
    </g>
</svg>