<svg version="1.0" xmlns="http://www.w3.org/2000/svg"
    width="40.000000pt" height="40.000000pt" viewBox="0 0 115.000000 134.000000"
    preserveAspectRatio="xMidYMid meet">
   
   <g transform="translate(0.000000,134.000000) scale(0.100000,-0.100000)"
   fill="#000000" stroke="none">
   <path d="M10 1190 l0 -140 95 0 95 0 0 45 0 45 475 0 475 0 0 95 0 95 -570 0
   -570 0 0 -140z"/>
   <path d="M10 475 l0 -475 95 0 95 0 0 380 0 380 475 0 475 0 0 95 0 95 -570 0
   -570 0 0 -475z"/>
   <path d="M390 330 l0 -330 95 0 95 0 0 185 0 185 285 0 285 0 0 95 0 95 -285
   0 -285 0 0 50 0 50 -95 0 -95 0 0 -330z"/>
   </g>
   </svg>